{
  "title": "Mechanic 2 Resurrection (2016) HD-TS DVD-SCR XviD AC3-NoGroup",
  "uid": 15630018,
  "size": 1380500644,
  "categoryP": "video",
  "categoryS": "movies",
  "magnet": "?xt=urn:btih:c46c8a4fec0c8d8495f5630a5fcb0316d2bb0968&amp;dn=Mechanic+2+Resurrection+%282016%29+HD-TS+DVD-SCR+XviD+AC3-NoGroup&amp;tr=udp%3A%2F%2Ftracker.leechers-paradise.org%3A6969&amp;tr=udp%3A%2F%2Fzer0day.ch%3A1337&amp;tr=udp%3A%2F%2Fopen.demonii.com%3A1337&amp;tr=udp%3A%2F%2Ftracker.coppersurfer.tk%3A6969&amp;tr=udp%3A%2F%2Fexodus.desync.com%3A6969",
  "seeders": 106,
  "leechers": 25,
  "uploader": "makintos13",
  "files": 1,
  "time": 1471951006,
  "description": "Mechanic 2 Resurrection (2016) HD-TS DVD-SCR XviD AC3-NoGroup\r\n\r\nscreens:\r\n \nhttps://imgmak.com/aHI\r\n \nhttps://imgmak.com/aHq\r\n \nhttps://imgmak.com/aHt\r\n \nhttps://imgmak.com/aH2\r\n \nhttps://imgmak.com/aHF\r\n \nhttps://imgmak.com/aHi\r\n \nhttps://imgmak.com/aHj\r\n \nhttps://imgmak.com/aHw\r\n\r\n\r\n\r\niMDB: http://www.imdb.com/title/tt3522806/\r\n\r\n\r\nBOOP thanks\r\n\r\n\r\nArthur Bishop thought he had put his murderous past behind him when his most formidable foe kidnaps the love of his life. Now he is forced to travel the globe to complete three impossible assassinations, and do what he does best, make them look like accidents.\r\n\r\nGeneral\r\nFormat : AVI\r\nFormat/Info : Audio Video Interleave\r\nFile size : 1.29 GiB\r\nDuration : 1h 35mn\r\nOverall bit rate : 1 936 Kbps\r\n\r\nVideo\r\nID : 0\r\nFormat : MPEG-4 Visual\r\nFormat profile : Advanced   \r\nFormat settings, BVOP : 2\r\nFormat settings, QPel : No\r\nFormat settings, GMC : No warppoints\r\nFormat settings, Matrix : Default (H.263)\r\nMuxing mode : Packed bitstream\r\nCodec ID : XVID\r\nCodec ID/Hint : XviD\r\nDuration : 1h 35mn\r\nBit rate : 1 736 Kbps\r\nWidth : 720 pixels\r\nHeight : 304 pixels\r\nDisplay aspect ratio : 2.35:1\r\nFrame rate : 23.976 fps\r\nColor space : YUV\r\nChroma subsampling : 4:2:0\r\nBit depth : 8 bits\r\nScan type : Progressive\r\nCompression mode : Lossy\r\nBits/(Pixel*Frame) : 0.331\r\nStream size : 1.15 GiB (90%)\r\nWriting library : XviD 64\r\n\r\nAudio\r\nID : 1\r\nFormat : AC-3\r\nFormat/Info : Audio Coding 3\r\nMode extension : CM (complete main)\r\nFormat settings, Endianness : Big\r\nCodec ID : 2000\r\nDuration : 1h 35mn\r\nBit rate mode : Constant\r\nBit rate : 192 Kbps\r\nChannel(s) : 2 channels\r\nChannel positions : Front: L R\r\nSampling rate : 48.0 KHz\r\nBit depth : 16 bits\r\nCompression mode : Lossy\r\nStream size : 131 MiB (10%)\r\nAlignment : Aligned on interleaves\r\nInterleave, duration : 64 ms (1.53 video frames)\r\nInterleave, preload duration : 192 ms",
  "parsed": {
    "xt": "urn:btih:c46c8a4fec0c8d8495f5630a5fcb0316d2bb0968",
    "dn": "Mechanic 2 Resurrection (2016) HD-TS DVD-SCR XviD AC3-NoGroup",
    "tr": [
      "udp://exodus.desync.com:6969",
      "udp://open.demonii.com:1337",
      "udp://tracker.coppersurfer.tk:6969",
      "udp://tracker.leechers-paradise.org:6969",
      "udp://zer0day.ch:1337"
    ],
    "infoHash": "c46c8a4fec0c8d8495f5630a5fcb0316d2bb0968",
    "infoHashBuffer": {
      "type": "Buffer",
      "data": [
        196,
        108,
        138,
        79,
        236,
        12,
        141,
        132,
        149,
        245,
        99,
        10,
        95,
        203,
        3,
        22,
        210,
        187,
        9,
        104
      ]
    },
    "name": "Mechanic 2 Resurrection (2016) HD-TS DVD-SCR XviD AC3-NoGroup",
    "announce": [
      "udp://exodus.desync.com:6969",
      "udp://open.demonii.com:1337",
      "udp://tracker.coppersurfer.tk:6969",
      "udp://tracker.leechers-paradise.org:6969",
      "udp://zer0day.ch:1337"
    ],
    "urlList": []
  },
  "previous": 64,
  "peers": 24,
  "last_updated": "2016-12-27T12:27:06.228Z"
}